<?xml version="1.0" encoding="UTF-8" standalone="no"?>
<svg
   xmlns:dc="http://purl.org/dc/elements/1.1/"
   xmlns:cc="http://creativecommons.org/ns#"
   xmlns:rdf="http://www.w3.org/1999/02/22-rdf-syntax-ns#"
   xmlns:svg="http://www.w3.org/2000/svg"
   xmlns="http://www.w3.org/2000/svg"
   xmlns:sodipodi="http://sodipodi.sourceforge.net/DTD/sodipodi-0.dtd"
   xmlns:inkscape="http://www.inkscape.org/namespaces/inkscape"
   version="1.1"
   stroke-miterlimit="10"
   width="200"
   height="360"
   id="svg2"
   inkscape:version="0.92.1 unknown"
   sodipodi:docname="SanUSB.svg"
   style="fill:none;stroke:none;stroke-linecap:square;stroke-miterlimit:10">
  <metadata
     id="metadata81">
    <rdf:RDF>
      <cc:Work
         rdf:about="">
        <dc:format>image/svg+xml</dc:format>
        <dc:type
           rdf:resource="http://purl.org/dc/dcmitype/StillImage" />
        <dc:title></dc:title>
      </cc:Work>
    </rdf:RDF>
  </metadata>
  <defs
     id="defs79" />
  <sodipodi:namedview
     pagecolor="#ffffff"
     bordercolor="#666666"
     borderopacity="1"
     objecttolerance="10"
     gridtolerance="10"
     guidetolerance="10"
     inkscape:pageopacity="0"
     inkscape:pageshadow="2"
     inkscape:window-width="1920"
     inkscape:window-height="1056"
     id="namedview77"
     showgrid="false"
     inkscape:zoom="0.76996071"
     inkscape:cx="401.93816"
     inkscape:cy="187.00237"
     inkscape:window-x="1280"
     inkscape:window-y="24"
     inkscape:window-maximized="1"
     inkscape:current-layer="layer1" />
  <clipPath
     id="p.0">
    <path
       d="M 0,0 H 960 V 720 H 0 Z"
       id="svg_1"
       inkscape:connector-curvature="0"
       style="clip-rule:nonzero" />
  </clipPath>
  <g
     inkscape:groupmode="layer"
     id="layer1"
     inkscape:label="SanUSB"
     style="display:inline"
     transform="translate(0,189.33334)">
    <g
       id="g4582"
       transform="translate(-225.7551,23.714286)">
      <rect
         style="fill:none;stroke:none;stroke-width:1.06666672;stroke-linecap:square;stroke-miterlimit:10"
         y="128.65306"
         x="149.98639"
         height="170.66667"
         width="288"
         id="backgroundrect"
         transform="translate(0,-256)" />
      <path
         d="M 233.60997,-199.53061 H 420.74058 V 140.88782 H 233.60997 Z"
         id="svg_205"
         class=""
         inkscape:connector-curvature="0"
         style="fill:#4caf50;fill-rule:evenodd;stroke-width:1.06666672" />
      <path
         d="m 268.0896,116.35994 v 0 c 0,-8.86588 7.18718,-16.0531 16.05309,-16.0531 v 0 c 4.25753,0 8.34066,1.69133 11.35123,4.70185 3.01056,3.01052 4.70185,7.09368 4.70185,11.35125 v 0 c 0,8.86585 -7.18727,16.05303 -16.05308,16.05303 v 0 c -8.86591,0 -16.05309,-7.18718 -16.05309,-16.05303 z"
         id="svg_208"
         class=""
         inkscape:connector-curvature="0"
         style="fill:#e74c3c;fill-rule:evenodd;stroke-width:1.06666672" />
      <path
         d="m 337.50489,-30.740333 v 0 c 0,-5.520704 4.47546,-9.996106 9.99614,-9.996106 h 31.59786 v 0 c 2.65113,0 5.19368,1.053173 7.06832,2.927786 1.87465,1.874635 2.92783,4.417195 2.92783,7.06832 v 0 0 c 0,5.520704 -4.47547,9.996107 -9.99615,9.996107 h -31.59786 c -5.52068,0 -9.99614,-4.475403 -9.99614,-9.996107 z"
         id="svg_209"
         class=""
         inkscape:connector-curvature="0"
         style="fill:#ecf0f1;fill-rule:evenodd;stroke-width:1.06666672" />
      <g
         transform="matrix(1.260765,0,0,1.260765,138.8587,-129.58606)"
         id="g5057">
        <path
           style="fill:#ecf0f1;fill-rule:evenodd;stroke-width:1.06666672"
           inkscape:connector-curvature="0"
           class=""
           id="svg_210"
           d="m 148.6152,180.65301 h 25.46562 v 25.46561 H 148.6152 Z" />
        <path
           style="fill:#2c3e50;fill-rule:evenodd;stroke-width:1.06666672"
           inkscape:connector-curvature="0"
           class=""
           id="svg_211"
           d="m 153.67138,193.3858 v 0 c 0,-4.23968 3.43691,-7.67662 7.67663,-7.67662 v 0 c 2.03594,0 3.98853,0.80879 5.42818,2.24844 1.43965,1.43965 2.24844,3.39224 2.24844,5.42818 v 0 c 0,4.23971 -3.43697,7.67666 -7.67662,7.67666 v 0 c -4.23972,0 -7.67663,-3.43695 -7.67663,-7.67666 z" />
      </g>
      <path
         d="m 351.95904,-170.12467 h 24.31255 v 54.00441 h -24.31255 z"
         id="svg_212"
         class=""
         inkscape:connector-curvature="0"
         style="fill:#2c3e50;fill-rule:evenodd;stroke-width:1.06666672" />
      <path
         d="m 351.95904,-170.12467 h 9.06429 v 54.00441 h -9.06429 z"
         id="svg_213"
         class=""
         inkscape:connector-curvature="0"
         style="fill:#ecf0f1;fill-rule:evenodd;stroke-width:1.06666672" />
      <path
         d="M 419.12669,12.949488 V 135.48655 H 389.26544 V 12.949488 Z"
         id="svg_220"
         class=""
         inkscape:connector-curvature="0"
         style="fill:#000000;fill-opacity:0;fill-rule:evenodd;stroke-width:1.06666672" />
      <path
         d="m 400.33213,31.062469 q -0.46227,0 -0.94558,-0.189109 -0.46228,-0.168096 -0.81949,-0.546325 -0.35723,-0.37823 -0.58836,-0.966592 -0.23115,-0.56735 -0.23115,-1.365835 V 27.04904 h -2.77367 v -1.071648 h 7.73269 v 2.185323 q 0,0.567349 -0.12602,1.092661 -0.126,0.525323 -0.42025,0.924565 -0.27315,0.399243 -0.73544,0.630379 -0.44128,0.252149 -1.09266,0.252149 z m -0.0419,-1.092661 q 0.73543,0 1.13469,-0.504299 0.39923,-0.483296 0.39923,-1.344821 V 27.04904 h -3.17292 v 0.966592 q 0,0.945568 0.39923,1.449877 0.39926,0.504299 1.23977,0.504299 z m 1.51292,4.774816 v -1.786091 h 0.90354 v 4.622806 h -0.90354 v -1.765078 h -5.9256 v 1.765078 h -0.90356 v -4.622806 h 0.90356 v 1.786091 z m -6.53498,9.985952 q -0.39923,-0.924555 -0.39923,-1.954187 0,-1.638997 0.98759,-2.521536 0.98761,-0.861514 2.89976,-0.861514 0.92456,0 1.66001,0.231136 0.75646,0.252149 1.28177,0.693429 0.52533,0.462272 0.79848,1.092661 0.29419,0.630379 0.29419,1.428864 0,0.546336 -0.10507,1.008608 -0.084,0.462283 -0.27316,0.882539 h -1.02963 q 0.23115,-0.420256 0.35723,-0.882539 0.12601,-0.441269 0.12601,-0.966581 0,-0.546336 -0.21013,-0.987605 -0.21012,-0.441259 -0.60938,-0.756459 -0.37823,-0.294176 -0.94557,-0.462283 -0.54632,-0.168106 -1.26076,-0.168106 -1.49191,0 -2.26938,0.609386 -0.75646,0.609355 -0.75646,1.78607 0,0.504309 0.10507,0.945578 0.126,0.462283 0.3362,0.882539 h -0.9876 z m -0.29418,13.794165 v -4.832928 h 0.96658 v 1.9752 h 5.63143 l -1.00862,-1.84912 0.88254,-0.378229 1.28178,2.458496 v 0.903541 h -6.78713 v 1.72304 z m 1.93318,6.981142 q -0.48329,0 -0.86152,-0.210123 -0.37823,-0.210133 -0.6514,-0.567349 -0.25215,-0.357216 -0.39923,-0.861515 -0.12602,-0.483307 -0.12602,-1.050645 0,-0.630379 0.12602,-1.113675 0.14708,-0.483296 0.39923,-0.819499 0.27317,-0.315189 0.60938,-0.483296 0.3572,-0.168106 0.77746,-0.168106 0.71443,0 1.21874,0.399253 0.50431,0.399232 0.92456,1.239744 0.39925,-0.756459 0.86153,-1.113664 0.46228,-0.357227 1.07165,-0.357227 0.37823,0 0.71443,0.147094 0.35723,0.168106 0.63038,0.483285 0.27317,0.3152 0.44128,0.777483 0.16809,0.462282 0.16809,1.092661 0,0.588363 -0.126,1.029621 -0.12602,0.462283 -0.37823,0.777472 -0.23115,0.31519 -0.56735,0.462283 -0.3362,0.147083 -0.75646,0.147083 -0.67242,0 -1.1557,-0.37823 -0.46228,-0.357205 -0.8195,-1.050634 -0.16811,0.336202 -0.37823,0.630378 -0.18911,0.294176 -0.46228,0.50431 -0.25215,0.231146 -0.56734,0.357226 -0.29418,0.126006 -0.69343,0.126006 z m 3.99242,-1.239755 q 0.52533,0 0.77748,-0.378229 0.27316,-0.357216 0.27316,-1.029622 0,-0.651402 -0.25216,-1.029632 -0.25215,-0.357205 -0.75646,-0.357205 -0.23113,0 -0.44126,0.08405 -0.18912,0.08405 -0.35722,0.273152 -0.1681,0.18912 -0.33621,0.462283 -0.16809,0.273173 -0.3362,0.672405 0.3152,0.651403 0.6514,0.966592 0.3362,0.336203 0.77747,0.336203 z m -4.05545,0.105067 q 0.21012,0 0.42025,-0.06304 0.21013,-0.06304 0.39924,-0.25215 0.21012,-0.189109 0.39925,-0.504309 0.21012,-0.294176 0.42024,-0.777461 -0.18912,-0.399243 -0.37823,-0.672406 -0.18912,-0.273173 -0.39924,-0.44128 -0.18911,-0.168096 -0.42025,-0.252149 -0.21013,-0.06304 -0.44126,-0.06304 -0.25216,0 -0.46229,0.105067 -0.21012,0.126005 -0.35722,0.315189 -0.12601,0.210133 -0.21012,0.483296 -0.063,0.294176 -0.063,0.609376 0,0.315179 0.063,0.588352 0.063,0.294176 0.18912,0.483285 0.14708,0.210134 0.3362,0.3152 0.21013,0.126006 0.50431,0.126006 z m 5.52634,8.283936 q 0.1681,-0.819499 0.1681,-1.407862 0,-1.386837 -1.44987,-1.386837 h -1.05064 v 2.605579 h -0.8405 v -2.605579 h -4.22358 v -1.050645 h 4.22358 V 66.91864 h 0.8405 v 1.891147 h 0.98759 q 2.37446,0 2.37446,2.479509 0,0.609376 -0.14711,1.365835 z m -1.47089,-6.219776 z m -5.9256,12.864704 v -5.106091 h 0.92457 l 1.97519,1.996203 q 0.4833,0.504298 0.84051,0.798485 0.35723,0.3152 0.6514,0.483296 0.29418,0.168107 0.54634,0.231136 0.27315,0.06304 0.56734,0.06304 0.29417,0 0.54632,-0.08405 0.25216,-0.06304 0.44128,-0.231147 0.21013,-0.168107 0.31518,-0.420256 0.10507,-0.252149 0.10507,-0.609365 0,-0.483296 -0.21014,-0.882528 -0.21012,-0.399254 -0.56733,-0.735456 l 0.67241,-0.567339 q 0.46228,0.441259 0.73544,1.008608 0.29417,0.567339 0.29417,1.323797 0,0.50431 -0.16809,0.924566 -0.14709,0.441269 -0.44126,0.735456 -0.29419,0.315178 -0.71443,0.483285 -0.39926,0.168096 -0.92457,0.168096 -0.46228,0 -0.84051,-0.126005 -0.37823,-0.105067 -0.75646,-0.357216 -0.35723,-0.231147 -0.77748,-0.609376 -0.39923,-0.357206 -0.86152,-0.840502 l -1.36583,-1.40785 v 3.76128 h -0.9876 z m 2.47951,6.686954 q -0.58836,0 -1.07165,-0.252149 -0.46228,-0.231147 -0.79848,-0.672405 -0.3362,-0.44128 -0.52532,-1.029632 -0.18911,-0.588363 -0.18911,-1.281771 0,-0.168107 0.021,-0.378229 0,-0.18912 0.021,-0.37823 0,-0.18912 0.021,-0.378229 0.021,-0.18912 0.0419,-0.336203 h 0.92455 q -0.063,0.315179 -0.10506,0.714432 -0.0419,0.420256 -0.0419,0.840512 0,0.483286 0.10506,0.861515 0.12601,0.378229 0.3362,0.630379 0.21013,0.273173 0.50431,0.420256 0.29418,0.147093 0.67241,0.147093 0.73543,0 1.05063,-0.525323 0.33621,-0.525312 0.33621,-1.491893 v -1.449888 h 3.9504 v 4.160523 h -0.90356 v -3.193942 h -2.1643 v 0.672406 q 0,0.546336 -0.10507,1.071658 -0.10507,0.525312 -0.35722,0.924566 -0.25216,0.420256 -0.67241,0.672405 -0.42025,0.252149 -1.05064,0.252149 z m 0,6.897099 q -0.58836,0 -1.07165,-0.25216 -0.46228,-0.231147 -0.79848,-0.672405 -0.3362,-0.44127 -0.52532,-1.029632 -0.18911,-0.588352 -0.18911,-1.281771 0,-0.168096 0.021,-0.378229 0,-0.18912 0.021,-0.37823 0,-0.18912 0.021,-0.378229 0.021,-0.18912 0.0419,-0.336203 h 0.92455 q -0.063,0.315179 -0.10506,0.714432 -0.0419,0.420256 -0.0419,0.840512 0,0.483286 0.10506,0.861515 0.12601,0.378229 0.3362,0.630379 0.21013,0.273173 0.50431,0.420256 0.29418,0.147104 0.67241,0.147104 0.73543,0 1.05063,-0.525334 0.33621,-0.525312 0.33621,-1.491893 v -1.449888 h 3.9504 v 4.160523 h -0.90356 v -3.193942 h -2.1643 v 0.672416 q 0,0.546326 -0.10507,1.071648 -0.10507,0.525312 -0.35722,0.924566 -0.25216,0.420256 -0.67241,0.672405 -0.42025,0.25216 -1.05064,0.25216 z m 1.38684,7.275308 q -0.90354,0 -1.639,-0.189111 -0.71443,-0.168106 -1.23974,-0.525333 -0.52532,-0.357205 -0.8195,-0.903541 -0.27316,-0.525323 -0.27316,-1.239755 0,-0.630379 0.23113,-1.134688 0.23115,-0.504309 0.71444,-0.882539 0.48329,-0.357205 1.23975,-0.546325 0.75646,-0.189109 1.78608,-0.189109 0.88254,0 1.61798,0.168096 0.73545,0.189109 1.23975,0.546336 0.52533,0.357205 0.81951,0.882538 0.29417,0.546326 0.29417,1.260758 0,0.630389 -0.25215,1.134688 -0.23114,0.504309 -0.71443,0.861525 -0.4833,0.357216 -1.23976,0.546325 -0.73544,0.210135 -1.76507,0.210135 z m -0.0419,-1.050647 q 0.21013,0 0.39925,-0.02101 0.18911,0 0.37823,-0.02101 l -2.41647,-3.256971 q -0.31519,0.08405 -0.58836,0.210123 -0.25215,0.147082 -0.44126,0.336202 -0.1681,0.18911 -0.27317,0.420256 -0.10507,0.25216 -0.10507,0.567339 0,0.399253 0.18913,0.735456 0.1891,0.336203 0.56733,0.567339 0.39925,0.231146 0.96659,0.336202 0.56735,0.126006 1.32381,0.126006 z m 0.063,-3.530133 q -0.1681,0 -0.35721,0 -0.18912,0.02101 -0.35722,0.02101 l 2.41648,3.277995 q 0.29417,-0.08405 0.54632,-0.231147 0.25215,-0.126016 0.42026,-0.315189 0.18911,-0.18912 0.29418,-0.441269 0.10506,-0.231136 0.10506,-0.546336 0,-0.399232 -0.21013,-0.735435 -0.18912,-0.3152 -0.58835,-0.546336 -0.37823,-0.231147 -0.94558,-0.357227 -0.56734,-0.126005 -1.3238,-0.126005 z"
         id="svg_221"
         class=""
         inkscape:connector-curvature="0"
         style="fill:#ffffff;fill-rule:nonzero;stroke-width:1.06666672" />
      <path
         d="m 371.78425,-67.779202 v 0 c 0,-2.573216 2.086,-4.659211 4.65916,-4.659211 h 8.72546 v 0 c 1.23565,0 2.42073,0.49088 3.29458,1.364651 0.87373,0.873781 1.36458,2.058859 1.36458,3.29456 v 0 0 c 0,2.573205 -2.08599,4.659211 -4.65916,4.659211 h -8.72546 v 0 c -2.57317,0 -4.65916,-2.086006 -4.65916,-4.659211 z"
         id="svg_224"
         class=""
         inkscape:connector-curvature="0"
         style="fill:#f39c12;fill-rule:evenodd;stroke-width:1.06666672" />
      <path
         d="m 371.78425,-53.603917 v 0 c 0,-2.573216 2.086,-4.65921 4.65916,-4.65921 h 8.72546 v 0 c 1.23565,0 2.42073,0.490869 3.29458,1.36464 0.87373,0.873781 1.36458,2.058858 1.36458,3.29457 v 0 0 c 0,2.573206 -2.08599,4.6592 -4.65916,4.6592 h -8.72546 v 0 c -2.57317,0 -4.65916,-2.085994 -4.65916,-4.6592 z"
         id="svg_225"
         class=""
         inkscape:connector-curvature="0"
         style="fill:#f39c12;fill-rule:evenodd;stroke-width:1.06666672" />
      <path
         d="m 253.59069,-144.03915 v 0 c 2.57315,0 4.65917,2.086 4.65917,4.6592 v 8.72543 0 c 0,1.23569 -0.49085,2.42078 -1.36469,3.29455 -0.87375,0.87378 -2.05884,1.36465 -3.29448,1.36465 v 0 0 c -2.57324,0 -4.65926,-2.08599 -4.65926,-4.6592 v -8.72543 0 c 0,-2.5732 2.08602,-4.6592 4.65926,-4.6592 z"
         id="svg_226"
         class=""
         inkscape:connector-curvature="0"
         style="fill:#f39c12;fill-rule:evenodd;stroke-width:1.06666672" />
      <path
         d="m 398.54815,126.18365 v 0 c 0,-4.98264 4.03921,-9.0219 9.02194,-9.0219 v 0 c 2.39274,0 4.68748,0.95051 6.37942,2.64244 1.69194,1.69195 2.64243,3.98672 2.64243,6.37946 v 0 c 0,4.9827 -4.03921,9.02194 -9.02185,9.02194 v 0 c -4.98273,0 -9.02194,-4.03924 -9.02194,-9.02194 z"
         id="svg_227"
         class=""
         inkscape:connector-curvature="0"
         style="fill:#ffffff;fill-rule:evenodd;stroke-width:1.06666672" />
      <path
         d="m 398.54815,126.18365 v 0 c 0,-4.98264 4.03921,-9.0219 9.02194,-9.0219 v 0 c 2.39274,0 4.68748,0.95051 6.37942,2.64244 1.69194,1.69195 2.64243,3.98672 2.64243,6.37946 v 0 c 0,4.9827 -4.03921,9.02194 -9.02185,9.02194 v 0 c -4.98273,0 -9.02194,-4.03924 -9.02194,-9.02194 z"
         id="svg_228"
         class=""
         inkscape:connector-curvature="0"
         style="fill-rule:evenodd;stroke:#2ecc71;stroke-width:1.34481597;stroke-linecap:butt;stroke-linejoin:round" />
      <path
         d="m 238.02281,128.43805 v 0 c 0,-4.98264 4.03928,-9.0219 9.02194,-9.0219 v 0 c 2.39273,0 4.68747,0.95054 6.37941,2.64248 1.69194,1.69194 2.64252,3.98668 2.64252,6.37942 v 0 c 0,4.98269 -4.03929,9.02194 -9.02193,9.02194 v 0 c -4.98266,0 -9.02194,-4.03925 -9.02194,-9.02194 z"
         id="svg_229"
         class=""
         inkscape:connector-curvature="0"
         style="fill:#ffffff;fill-rule:evenodd;stroke-width:1.06666672" />
      <path
         d="m 238.02281,128.43805 v 0 c 0,-4.98264 4.03928,-9.0219 9.02194,-9.0219 v 0 c 2.39273,0 4.68747,0.95054 6.37941,2.64248 1.69194,1.69194 2.64252,3.98668 2.64252,6.37942 v 0 c 0,4.98269 -4.03929,9.02194 -9.02193,9.02194 v 0 c -4.98266,0 -9.02194,-4.03925 -9.02194,-9.02194 z"
         id="svg_230"
         class=""
         inkscape:connector-curvature="0"
         style="fill-rule:evenodd;stroke:#2ecc71;stroke-width:1.34481597;stroke-linecap:butt;stroke-linejoin:round" />
      <path
         d="m 398.54815,-184.96821 v 0 c 0,-4.98267 4.03921,-9.02192 9.02194,-9.02192 v 0 c 2.39274,0 4.68748,0.95052 6.37942,2.64246 1.69194,1.69194 2.64243,3.9867 2.64243,6.37946 v 0 c 0,4.98266 -4.03921,9.02192 -9.02185,9.02192 v 0 c -4.98273,0 -9.02194,-4.03926 -9.02194,-9.02192 z"
         id="svg_231"
         class=""
         inkscape:connector-curvature="0"
         style="fill:#ffffff;fill-rule:evenodd;stroke-width:1.06666672" />
      <path
         d="m 398.54815,-184.96821 v 0 c 0,-4.98267 4.03921,-9.02192 9.02194,-9.02192 v 0 c 2.39274,0 4.68748,0.95052 6.37942,2.64246 1.69194,1.69194 2.64243,3.9867 2.64243,6.37946 v 0 c 0,4.98266 -4.03921,9.02192 -9.02185,9.02192 v 0 c -4.98273,0 -9.02194,-4.03926 -9.02194,-9.02192 z"
         id="svg_232"
         class=""
         inkscape:connector-curvature="0"
         style="fill-rule:evenodd;stroke:#2ecc71;stroke-width:1.34481597;stroke-linecap:butt;stroke-linejoin:round" />
      <path
         d="m 239.15003,-184.96821 v 0 c 0,-4.98267 4.03928,-9.02192 9.02194,-9.02192 v 0 c 2.39273,0 4.68748,0.95052 6.37941,2.64246 1.69195,1.69194 2.64253,3.9867 2.64253,6.37946 v 0 c 0,4.98266 -4.0393,9.02192 -9.02194,9.02192 v 0 c -4.98266,0 -9.02194,-4.03926 -9.02194,-9.02192 z"
         id="svg_233"
         class=""
         inkscape:connector-curvature="0"
         style="fill:#ffffff;fill-rule:evenodd;stroke-width:1.06666672" />
      <path
         d="m 239.15003,-184.96821 v 0 c 0,-4.98267 4.03928,-9.02192 9.02194,-9.02192 v 0 c 2.39273,0 4.68748,0.95052 6.37941,2.64246 1.69195,1.69194 2.64253,3.9867 2.64253,6.37946 v 0 c 0,4.98266 -4.0393,9.02192 -9.02194,9.02192 v 0 c -4.98266,0 -9.02194,-4.03926 -9.02194,-9.02192 z"
         id="svg_234"
         class=""
         inkscape:connector-curvature="0"
         style="fill-rule:evenodd;stroke:#2ecc71;stroke-width:1.34481597;stroke-linecap:butt;stroke-linejoin:round" />
      <g
         transform="matrix(1.260765,0,0,1.260765,138.8587,-129.58606)"
         id="g5047">
        <path
           style="fill:#2c3e50;fill-rule:evenodd;stroke-width:1.06666672"
           inkscape:connector-curvature="0"
           class=""
           id="svg_214"
           d="M 95.783168,42.199126 H 109.05355 V 168.68731 H 95.783168 Z" />
        <path
           style="fill:#2c3e50;fill-rule:evenodd;stroke-width:1.06666672"
           inkscape:connector-curvature="0"
           class=""
           id="svg_215"
           d="m 157.56005,99.172001 h 13.27038 v 69.509709 h -13.27038 z" />
        <path
           style="fill:#2c3e50;fill-rule:evenodd;stroke-width:1.06666672"
           inkscape:connector-curvature="0"
           class=""
           id="svg_216"
           d="m 157.56005,33.991663 h 13.27038 v 31.242973 h -13.27038 z" />
        <path
           style="fill:#2c3e50;fill-rule:evenodd;stroke-width:1.06666672"
           inkscape:connector-curvature="0"
           class=""
           id="svg_222"
           d="M 78.2936,42.199126 H 91.563979 V 81.842177 H 78.2936 Z" />
        <path
           style="fill:#2c3e50;fill-rule:evenodd;stroke-width:1.06666672"
           inkscape:connector-curvature="0"
           class=""
           id="svg_223"
           d="M 103.1552,24.986875 V 38.257212 H 78.313173 V 24.986875 Z" />
        <path
           style="fill:#2c3e50;fill-rule:evenodd;stroke-width:1.06666672"
           inkscape:connector-curvature="0"
           class=""
           id="svg_235"
           d="m 105.5902,-32.65512 v 13.270341 H 76.958046 V -32.65512 Z" />
        <path
           style="fill:#2c3e50;fill-rule:evenodd;stroke-width:1.06666672"
           inkscape:connector-curvature="0"
           class=""
           id="svg_236"
           d="M 208.22256,7.4806603 H 194.95218 V -15.263692 h 13.27038 z" />
        <path
           style="fill:#2c3e50;fill-rule:evenodd;stroke-width:1.06666672"
           inkscape:connector-curvature="0"
           class=""
           id="svg_237"
           d="m 195.44496,-53.058967 v 13.270341 h -29.86667 v -13.270341 z" />
      </g>
      <path
         d="m 268.98719,-111.96739 v 0 c 0,2.57324 -2.086,4.65925 -4.65919,4.65925 h -21.4747 c -1.2357,0 -2.42079,-0.49093 -3.29456,-1.36468 -0.87377,-0.87375 -1.36465,-2.05885 -1.36465,-3.29457 v 0 0 c 0,-2.57315 2.086,-4.65917 4.65921,-4.65917 h 21.4747 c 2.57319,0 4.65919,2.08602 4.65919,4.65917 z"
         id="svg_238"
         class=""
         inkscape:connector-curvature="0"
         style="fill:#2c3e50;fill-rule:evenodd;stroke-width:1.06666672" />
      <path
         d="m 299.53945,94.508603 v 0 c 0,2.573226 -2.08602,4.65921 -4.65917,4.65921 h -21.47471 c -1.23572,0 -2.42082,-0.49089 -3.29457,-1.36464 -0.87374,-0.87377 -1.36469,-2.058858 -1.36469,-3.29457 v 0 0 c 0,-2.573195 2.08602,-4.659211 4.65926,-4.659211 h 21.47471 c 2.57315,0 4.65917,2.086016 4.65917,4.659211 z"
         id="svg_239"
         class=""
         inkscape:connector-curvature="0"
         style="fill:#e2a596;fill-rule:evenodd;stroke-width:1.06666672" />
      <path
         d="m 390.3421,77.206021 v 0 c 0,2.573216 -2.08601,4.659211 -4.65925,4.659211 h -21.47471 c -1.23564,0 -2.42074,-0.49088 -3.29449,-1.364651 -0.87383,-0.873781 -1.36468,-2.058858 -1.36468,-3.29456 v 0 0 c 0,-2.573205 2.08602,-4.6592 4.65917,-4.6592 h 21.47471 c 2.57324,0 4.65925,2.085995 4.65925,4.6592 z"
         id="svg_240"
         class=""
         inkscape:connector-curvature="0"
         style="fill:#e2a596;fill-rule:evenodd;stroke-width:1.06666672" />
      <path
         d="m 381.90743,156.52438 h -67.00777 v -29.86124 h 67.00777 z"
         id="svg_241"
         class=""
         inkscape:connector-curvature="0"
         style="fill:#000000;fill-opacity:0;fill-rule:evenodd;stroke-width:1.06666672" />
      <path
         d="m 337.61126,134.47278 q 0,-0.56734 0.23113,-0.9876 0.21013,-0.39925 0.60939,-0.6724 0.39923,-0.27317 0.96658,-0.42026 0.56734,-0.12601 1.23974,-0.12601 0.3152,0 0.63038,0.021 0.29419,0.021 0.58836,0.063 0.27318,0.0419 0.52533,0.084 0.23113,0.0419 0.44125,0.10507 v 1.00861 q -0.44125,-0.16811 -0.98758,-0.27316 -0.56736,-0.0841 -1.26077,-0.0841 -0.52532,0 -0.88254,0.0841 -0.35721,0.0841 -0.56735,0.23113 -0.23113,0.16811 -0.3362,0.37823 -0.10507,0.23115 -0.10507,0.52532 0,0.31519 0.16811,0.52532 0.16811,0.23114 0.46228,0.39925 0.27318,0.16809 0.65141,0.31518 0.3572,0.1471 0.73543,0.29418 0.37823,0.1681 0.75646,0.33621 0.35723,0.18912 0.6514,0.42025 0.27317,0.25215 0.44126,0.58835 0.16811,0.33621 0.16811,0.77749 0,0.39923 -0.14708,0.77746 -0.16811,0.39925 -0.52533,0.69343 -0.35721,0.29417 -0.90354,0.48328 -0.54633,0.18912 -1.30279,0.18912 -0.18912,0 -0.42026,-0.021 -0.23115,-0.021 -0.46228,-0.063 -0.23115,-0.021 -0.46227,-0.063 -0.23116,-0.0419 -0.42026,-0.084 v -0.94557 q 0.46227,0.126 0.92455,0.18911 0.44126,0.063 0.86152,0.063 0.90356,0 1.34482,-0.29419 0.42026,-0.29417 0.42026,-0.8195 0,-0.29417 -0.16811,-0.52531 -0.18911,-0.23115 -0.46228,-0.42026 -0.29418,-0.1681 -0.65138,-0.3152 -0.35723,-0.126 -0.73546,-0.29417 -0.37823,-0.14708 -0.73543,-0.3362 -0.37823,-0.18911 -0.65141,-0.44126 -0.29418,-0.23115 -0.46228,-0.56736 -0.16811,-0.33621 -0.16811,-0.79848 z m -5.76242,-2.10128 0.021,0.79848 q 0.48328,-0.48328 0.98759,-0.6934 0.4833,-0.21014 1.02963,-0.21014 0.52531,0 0.88254,0.12601 0.35721,0.12601 0.58835,0.35721 0.23114,0.23115 0.35721,0.52533 0.10507,0.31519 0.10507,0.6724 0,0.90354 -0.67241,1.40785 -0.67242,0.50431 -1.9752,0.50431 h -1.21874 v 0.52532 q 0,0.52532 0.3362,0.84052 0.3362,0.31518 1.02963,0.31518 0.50431,0 0.9876,-0.12601 0.48329,-0.10507 1.00861,-0.31518 v 0.92456 q -0.18911,0.084 -0.42026,0.14708 -0.25215,0.063 -0.5043,0.10507 -0.27316,0.063 -0.56734,0.084 -0.29417,0.0419 -0.58836,0.0419 -0.54633,0 -0.96658,-0.12601 -0.44128,-0.10506 -0.73546,-0.35722 -0.29417,-0.23114 -0.44126,-0.60937 -0.1681,-0.35723 -0.1681,-0.84051 v -4.09749 h 0.92456 z m 0.10507,2.71065 h 1.30278 q 0.37823,0 0.67242,-0.0841 0.27315,-0.084 0.46227,-0.23115 0.16811,-0.126 0.25216,-0.3362 0.0841,-0.18911 0.0841,-0.44126 0,-0.1681 -0.0419,-0.3362 -0.063,-0.1471 -0.1681,-0.27317 -0.12601,-0.12602 -0.31519,-0.18911 -0.18911,-0.063 -0.46228,-0.063 -0.35722,0 -0.81949,0.21012 -0.46228,0.21013 -0.96659,0.67241 v 1.07165 z m -3.19888,3.21495 h -0.92456 l -0.0419,-0.94557 q -0.25214,0.29418 -0.48328,0.50431 -0.25215,0.21012 -0.4833,0.3362 -0.23113,0.12601 -0.46228,0.1681 -0.25215,0.0419 -0.52531,0.0419 -0.90355,0 -1.36584,-0.54634 -0.48328,-0.52532 -0.48328,-1.61798 v -3.86635 h 1.02962 v 3.7823 q 0,0.69342 0.27316,1.02963 0.25216,0.3362 0.75646,0.3362 0.18911,0 0.37823,-0.063 0.16811,-0.0419 0.37823,-0.18911 0.18911,-0.126 0.42026,-0.37823 0.23113,-0.23115 0.50431,-0.58835 v -3.9294 h 1.02962 v 5.9256 z m -11.96116,-3.23597 q 0,-0.63038 0.18911,-1.15569 0.16809,-0.52532 0.52532,-0.88254 0.3362,-0.35723 0.84051,-0.56735 0.5043,-0.18911 1.15569,-0.18911 0.73546,0 1.23977,0.18911 0.48328,0.18912 0.81948,0.52532 0.3152,0.35722 0.46229,0.84052 0.126,0.48328 0.126,1.07164 v 5.21116 h -1.05063 v -5.12711 q 0,-0.44126 -0.0841,-0.79848 -0.0841,-0.33621 -0.27316,-0.56734 -0.18912,-0.23114 -0.5043,-0.35722 -0.3152,-0.10507 -0.75646,-0.10507 -0.84051,0 -1.23976,0.48329 -0.39923,0.4833 -0.39923,1.36584 v 5.10609 h -1.05064 v -5.04306 z m -6.77095,-0.58835 q 0,-0.56734 0.23113,-0.9876 0.21013,-0.39925 0.60937,-0.6724 0.39925,-0.27317 0.9666,-0.42026 0.56733,-0.12601 1.23974,-0.12601 0.3152,0 0.63038,0.021 0.29419,0.021 0.58836,0.063 0.27317,0.0419 0.52532,0.084 0.23114,0.0419 0.44126,0.10507 v 1.00861 q -0.44126,-0.16811 -0.98758,-0.27316 -0.56736,-0.0841 -1.26077,-0.0841 -0.52532,0 -0.88254,0.0841 -0.35722,0.0841 -0.56735,0.23113 -0.23113,0.16811 -0.3362,0.37823 -0.10507,0.23115 -0.10507,0.52532 0,0.31519 0.16811,0.52532 0.1681,0.23114 0.46228,0.39925 0.27318,0.16809 0.65141,0.31518 0.3572,0.1471 0.73543,0.29418 0.37823,0.1681 0.75646,0.33621 0.35723,0.18912 0.6514,0.42025 0.27316,0.25215 0.44126,0.58835 0.16811,0.33621 0.16811,0.77749 0,0.39923 -0.14709,0.77746 -0.1681,0.39925 -0.52533,0.69343 -0.3572,0.29417 -0.90354,0.48328 -0.54633,0.18912 -1.30278,0.18912 -0.18912,0 -0.42026,-0.021 -0.23115,-0.021 -0.46228,-0.063 -0.23115,-0.021 -0.46229,-0.063 -0.23114,-0.0419 -0.42025,-0.084 v -0.94557 q 0.46228,0.126 0.92456,0.18911 0.44126,0.063 0.86152,0.063 0.90355,0 1.34482,-0.29419 0.42026,-0.29417 0.42026,-0.8195 0,-0.29417 -0.16811,-0.52531 -0.18911,-0.23115 -0.46228,-0.42026 -0.29418,-0.1681 -0.65139,-0.3152 -0.35722,-0.126 -0.73545,-0.29417 -0.37823,-0.14708 -0.73545,-0.3362 -0.37823,-0.18911 -0.6514,-0.44126 -0.29418,-0.23115 -0.46227,-0.56736 -0.16811,-0.33621 -0.16811,-0.79848 z m -7.0232,0.21012 q 0,-0.54632 0.23115,-0.98759 0.21013,-0.42026 0.60936,-0.71444 0.39926,-0.29417 0.96659,-0.46228 0.54633,-0.14709 1.23976,-0.14709 h 2.03823 v 7.73269 h -2.22735 q -2.58456,0 -2.58456,-1.89114 0,-0.63038 0.31519,-1.07165 0.29417,-0.44127 0.96658,-0.67241 -0.31518,-0.063 -0.58836,-0.21012 -0.29418,-0.12602 -0.5043,-0.35723 -0.21013,-0.21012 -0.33621,-0.52531 -0.12601,-0.3152 -0.12601,-0.69343 z m 1.36584,3.38306 q 0,0.25215 0.084,0.46229 0.063,0.21012 0.25215,0.3572 0.16811,0.14709 0.48329,0.23115 0.29418,0.084 0.75646,0.084 h 1.07165 v -2.41647 h -1.05063 q -0.35723,0 -0.6514,0.0841 -0.29418,0.0841 -0.50431,0.23115 -0.21013,0.1681 -0.31518,0.39923 -0.12601,0.25215 -0.12601,0.56735 z m -0.25215,-3.42509 q 0,0.29419 0.126,0.52534 0.12602,0.25215 0.37823,0.39923 0.23114,0.1681 0.56734,0.25215 0.3362,0.10507 0.75646,0.10507 h 1.07166 v -2.66863 h -1.09266 q -0.90355,0 -1.34482,0.3362 -0.46228,0.3362 -0.46228,1.05064 z"
         id="svg_242"
         class=""
         inkscape:connector-curvature="0"
         style="fill:#ffffff;fill-rule:nonzero;stroke-width:1.06666672" />
      <path
         d="m 327.38555,74.835653 h 2.49895 v 6.52288 h -2.49895 z"
         id="svg_243"
         class=""
         inkscape:connector-curvature="0"
         style="fill:#ecf0f1;fill-rule:evenodd;stroke-width:1.06666672" />
      <path
         d="m 327.38555,61.606341 h 2.49895 v 6.522902 h -2.49895 z"
         id="svg_244"
         class=""
         inkscape:connector-curvature="0"
         style="fill:#ecf0f1;fill-rule:evenodd;stroke-width:1.06666672" />
      <path
         d="m 327.38555,48.375259 h 2.49895 v 6.52288 h -2.49895 z"
         id="svg_245"
         class=""
         inkscape:connector-curvature="0"
         style="fill:#ecf0f1;fill-rule:evenodd;stroke-width:1.06666672" />
      <path
         d="m 327.38555,35.329477 h 2.49895 v 6.522912 h -2.49895 z"
         id="svg_246"
         class=""
         inkscape:connector-curvature="0"
         style="fill:#ecf0f1;fill-rule:evenodd;stroke-width:1.06666672" />
      <path
         d="m 327.38555,22.285467 h 2.49895 v 6.522901 h -2.49895 z"
         id="svg_247"
         class=""
         inkscape:connector-curvature="0"
         style="fill:#ecf0f1;fill-rule:evenodd;stroke-width:1.06666672" />
      <path
         d="m 327.38555,9.0561653 h 2.49895 v 6.5228797 h -2.49895 z"
         id="svg_248"
         class=""
         inkscape:connector-curvature="0"
         style="fill:#ecf0f1;fill-rule:evenodd;stroke-width:1.06666672" />
      <path
         d="m 327.38555,-4.1749173 h 2.49895 v 6.52288 h -2.49895 z"
         id="svg_249"
         class=""
         inkscape:connector-curvature="0"
         style="fill:#ecf0f1;fill-rule:evenodd;stroke-width:1.06666672" />
      <path
         d="m 327.38555,-17.220699 h 2.49895 v 6.522891 h -2.49895 z"
         id="svg_250"
         class=""
         inkscape:connector-curvature="0"
         style="fill:#ecf0f1;fill-rule:evenodd;stroke-width:1.06666672" />
      <path
         d="m 327.38555,-30.266466 h 2.49895 v 6.522901 h -2.49895 z"
         id="svg_251"
         class=""
         inkscape:connector-curvature="0"
         style="fill:#ecf0f1;fill-rule:evenodd;stroke-width:1.06666672" />
      <path
         d="m 327.38555,-56.358007 h 2.49895 v 6.52288 h -2.49895 z"
         id="svg_253"
         class=""
         inkscape:connector-curvature="0"
         style="fill:#ecf0f1;fill-rule:evenodd;stroke-width:1.06666672" />
      <path
         d="m 327.38555,-69.403799 h 2.49895 v 6.522901 h -2.49895 z"
         id="svg_254"
         class=""
         inkscape:connector-curvature="0"
         style="fill:#ecf0f1;fill-rule:evenodd;stroke-width:1.06666672" />
      <path
         d="m 327.38555,-82.449559 h 2.49895 v 6.52289 h -2.49895 z"
         id="svg_255"
         class=""
         inkscape:connector-curvature="0"
         style="fill:#ecf0f1;fill-rule:evenodd;stroke-width:1.06666672" />
      <path
         d="m 327.38555,-95.49533 h 2.49895 v 6.522891 h -2.49895 z"
         id="svg_256"
         class=""
         inkscape:connector-curvature="0"
         style="fill:#ecf0f1;fill-rule:evenodd;stroke-width:1.06666672" />
      <path
         d="m 284.01523,74.835653 h 2.49896 v 6.52288 h -2.49896 z"
         id="svg_257"
         class=""
         inkscape:connector-curvature="0"
         style="fill:#ecf0f1;fill-rule:evenodd;stroke-width:1.06666672" />
      <path
         d="m 284.01523,61.606341 h 2.49896 v 6.522902 h -2.49896 z"
         id="svg_258"
         class=""
         inkscape:connector-curvature="0"
         style="fill:#ecf0f1;fill-rule:evenodd;stroke-width:1.06666672" />
      <path
         d="m 284.01523,48.375259 h 2.49896 v 6.52288 h -2.49896 z"
         id="svg_259"
         class=""
         inkscape:connector-curvature="0"
         style="fill:#ecf0f1;fill-rule:evenodd;stroke-width:1.06666672" />
      <path
         d="m 284.01523,35.329477 h 2.49896 v 6.522912 h -2.49896 z"
         id="svg_260"
         class=""
         inkscape:connector-curvature="0"
         style="fill:#ecf0f1;fill-rule:evenodd;stroke-width:1.06666672" />
      <path
         d="m 284.01523,22.285467 h 2.49896 v 6.522901 h -2.49896 z"
         id="svg_261"
         class=""
         inkscape:connector-curvature="0"
         style="fill:#ecf0f1;fill-rule:evenodd;stroke-width:1.06666672" />
      <path
         d="m 284.01523,9.0561653 h 2.49896 v 6.5228797 h -2.49896 z"
         id="svg_262"
         class=""
         inkscape:connector-curvature="0"
         style="fill:#ecf0f1;fill-rule:evenodd;stroke-width:1.06666672" />
      <path
         d="m 284.01523,-4.1749173 h 2.49896 v 6.52288 h -2.49896 z"
         id="svg_263"
         class=""
         inkscape:connector-curvature="0"
         style="fill:#ecf0f1;fill-rule:evenodd;stroke-width:1.06666672" />
      <path
         d="m 284.01523,-17.220699 h 2.49896 v 6.522891 h -2.49896 z"
         id="svg_264"
         class=""
         inkscape:connector-curvature="0"
         style="fill:#ecf0f1;fill-rule:evenodd;stroke-width:1.06666672" />
      <path
         d="m 284.01523,-30.266466 h 2.49896 v 6.522901 h -2.49896 z"
         id="svg_265"
         class=""
         inkscape:connector-curvature="0"
         style="fill:#ecf0f1;fill-rule:evenodd;stroke-width:1.06666672" />
      <g
         transform="matrix(1.260765,0,0,1.260765,138.8587,-129.58606)"
         id="g5042">
        <path
           style="fill:#2c3e50;fill-rule:evenodd;stroke-width:1.06666672"
           inkscape:connector-curvature="0"
           class=""
           id="svg_206"
           d="m 117.21435,24.986875 h 32.18476 V 168.6761 h -32.18476 z" />
        <path
           style="fill:#ecf0f1;fill-rule:evenodd;stroke-width:1.06666672"
           inkscape:connector-curvature="0"
           class=""
           id="svg_252"
           d="m 149.53371,68.42974 h 1.98209 v 5.17377 h -1.98209 z" />
        <path
           style="fill:#ecf0f1;fill-rule:evenodd;stroke-width:1.06666672"
           inkscape:connector-curvature="0"
           class=""
           id="svg_266"
           d="m 115.13371,68.42974 h 1.98209 v 5.17377 h -1.98209 z" />
        <g
           id="g5543"
           style="display:inline"
           transform="matrix(0.79316923,0,0,0.79316923,8.826151,1.7871138)">
          <path
             style="fill:#34495e;fill-rule:evenodd;stroke-width:1.06666672"
             inkscape:connector-curvature="0"
             class=""
             id="svg_217"
             d="m 147.26229,177.98739 v 0 c 0,-5.34526 4.33323,-9.67844 9.67851,-9.67844 v 0 c 2.56684,0 5.0286,1.01969 6.84366,2.83475 1.81507,1.81506 2.83476,4.27681 2.83476,6.84369 v 0 c 0,5.34524 -4.33323,9.67846 -9.67842,9.67846 v 0 c -5.34528,0 -9.67851,-4.33322 -9.67851,-9.67846 z" />
          <path
             style="fill:#34495e;fill-rule:evenodd;stroke-width:1.06666672"
             inkscape:connector-curvature="0"
             class=""
             id="svg_218"
             d="m 147.26229,68.726734 v 0 c 0,-5.345248 4.33323,-9.678432 9.67851,-9.678432 v 0 c 2.56684,0 5.0286,1.01968 6.84366,2.834731 1.81507,1.815072 2.83476,4.27681 2.83476,6.843701 v 0 c 0,5.345237 -4.33323,9.678432 -9.67842,9.678432 v 0 c -5.34528,0 -9.67851,-4.333195 -9.67851,-9.678432 z" />
          <path
             style="fill:#34495e;fill-rule:evenodd;stroke-width:1.06666672"
             inkscape:connector-curvature="0"
             class=""
             id="svg_219"
             d="m 153.98642,202.86825 h 5.90877 v 0 c 0.7498,0 1.46899,0.29787 1.99917,0.82809 0.53023,0.53022 0.8281,1.24937 0.8281,1.99919 v 4.71216 c 0,5e-5 -8e-5,1e-4 -8e-5,1e-4 l -11.56324,-1e-4 v 0 c 0,0 -9e-5,-4e-5 -9e-5,-1.1e-4 l 9e-5,-4.71205 v 0 c 0,-1.56146 1.26585,-2.82728 2.82728,-2.82728 z" />
        </g>
      </g>
      <path
         d="m 284.01523,-56.358007 h 2.49896 v 6.52288 h -2.49896 z"
         id="svg_267"
         class=""
         inkscape:connector-curvature="0"
         style="fill:#ecf0f1;fill-rule:evenodd;stroke-width:1.06666672" />
      <path
         d="m 284.01523,-69.403799 h 2.49896 v 6.522901 h -2.49896 z"
         id="svg_268"
         class=""
         inkscape:connector-curvature="0"
         style="fill:#ecf0f1;fill-rule:evenodd;stroke-width:1.06666672" />
      <path
         d="m 284.01523,-82.449559 h 2.49896 v 6.52289 h -2.49896 z"
         id="svg_269"
         class=""
         inkscape:connector-curvature="0"
         style="fill:#ecf0f1;fill-rule:evenodd;stroke-width:1.06666672" />
      <path
         d="m 284.01523,-95.49533 h 2.49896 v 6.522891 h -2.49896 z"
         id="svg_270"
         class=""
         inkscape:connector-curvature="0"
         style="fill:#ecf0f1;fill-rule:evenodd;stroke-width:1.06666672" />
      <path
         d="m 336.80929,-96.935554 v 0 c 0,-2.573213 2.08602,-4.659206 4.65917,-4.659206 h 8.72546 v 0 c 1.23565,0 2.42073,0.49088 3.29457,1.36465 0.87374,0.873778 1.36459,2.058855 1.36459,3.294556 v 0 0 c 0,2.573205 -2.086,4.659211 -4.65916,4.659211 h -8.72546 v 0 c -2.57316,0 -4.65917,-2.086006 -4.65917,-4.659211 z"
         id="svg_224-3"
         class=""
         inkscape:connector-curvature="0"
         style="fill:#f39c12;fill-rule:evenodd;stroke-width:1.06666672" />
      <g
         transform="matrix(1.260765,0,0,1.260765,138.8587,-129.58606)"
         id="g5090">
        <path
           style="fill:#bdc3c7;fill-rule:evenodd;stroke-width:1.06666672"
           inkscape:connector-curvature="0"
           class=""
           id="svg_207"
           d="m 105.62602,-59.948907 h 50.96477 v 77.774272 h -50.96477 z" />
        <path
           style="fill:#999999;fill-rule:evenodd;stroke-width:1.06666672"
           inkscape:connector-curvature="0"
           class=""
           id="svg_207-6"
           d="m 105.62602,3.6389291 h 50.96476 V 17.825365 h -50.96476 z" />
      </g>
    </g>
  </g>
</svg>
